<svg width="76" height="47" viewBox="0 0 76 47" fill="none" xmlns="http://www.w3.org/2000/svg">
<path d="M60.0084 32.2262C58.5169 29.1493 53.181 24.8783 48.0258 20.7516C45.1504 18.4516 42.4334 16.2771 40.7013 14.5632C40.2674 14.1308 39.6183 13.9928 39.0451 14.1966C37.978 14.5789 37.3193 14.8734 36.8 15.1021C36.0084 15.453 35.7424 15.5721 34.6751 15.6786C34.2033 15.7256 33.779 15.9763 33.5161 16.3648C31.2773 19.6768 28.9593 19.3947 27.4108 18.881C26.9168 18.7181 26.8281 18.508 26.7806 18.3075C26.4481 16.932 28.117 13.7296 30.2798 11.5895C35.4256 6.49452 38.0793 5.21917 43.6843 7.69775C50.0429 10.5115 56.4143 12.7144 56.4776 12.7363C57.3105 13.0214 58.2066 12.589 58.4948 11.7711C58.7798 10.9533 58.3459 10.0603 57.5194 9.77521C57.456 9.75332 51.2114 7.59435 44.9794 4.83376C37.7183 1.62196 33.7345 3.73701 28.044 9.371C25.878 11.5143 22.9361 15.8509 23.6961 19.0314C24.0222 20.385 24.985 21.3877 26.4162 21.8545C30.0041 23.0265 33.2783 21.9046 35.7167 18.7024C36.7237 18.5489 37.2716 18.3233 38.0948 17.9567C38.3925 17.8251 38.7408 17.6716 39.2032 17.4866C41.0146 19.1693 43.4592 21.1276 46.0337 23.1863C50.6887 26.9119 55.9676 31.1358 57.1551 33.5799C57.741 34.7862 57.1107 35.5727 56.6832 35.933C56.0562 36.4657 55.1981 36.6349 54.7326 36.3121C54.2196 35.9643 53.5515 35.9424 53.0226 36.2557C52.4906 36.569 52.193 37.1612 52.2595 37.7691C52.3671 38.7656 51.4456 39.3359 51.0466 39.5333C50.0332 40.0409 48.9756 39.9532 48.5797 39.5897C48.1363 39.1824 47.4998 39.0633 46.9362 39.2701C46.3726 39.48 45.9798 39.9939 45.9228 40.5892C45.8278 41.6169 45.0583 42.604 44.0545 42.9894C43.57 43.1711 42.867 43.2808 42.2368 42.7105C41.8442 42.3596 41.2995 42.2247 40.7897 42.3469C40.2736 42.4722 39.8587 42.8421 39.6782 43.334C39.6181 43.4907 39.4818 43.8667 37.9998 43.8667C36.9453 43.8667 35.0485 43.1617 34.1207 42.5537C33.0092 41.8299 26.0393 36.6849 20.0196 31.6964C19.1741 30.9914 17.7111 29.4811 16.4191 28.1462C15.2727 26.9618 14.2246 25.8871 13.6862 25.4359C13.0117 24.8719 12.0142 24.9565 11.4537 25.6208C10.8901 26.2819 10.9723 27.2722 11.6406 27.8299C12.1315 28.2404 13.0815 29.2336 14.1296 30.3146C15.542 31.7747 17.0017 33.2851 17.9835 34.0998C23.8799 38.9849 30.9669 44.2584 32.3791 45.1764C33.5445 45.9347 36.0556 47 38 47C39.5611 47 40.7614 46.6459 41.5941 45.9535C42.7087 46.3829 43.9755 46.386 45.1946 45.9159C46.6355 45.3644 47.8197 44.2521 48.4911 42.9048C49.7387 43.168 51.167 42.9831 52.4652 42.3377C53.7351 41.7048 54.6533 40.7365 55.1093 39.6053C56.3697 39.6711 57.668 39.2293 58.7415 38.3175C60.5594 36.779 61.0596 34.3852 60.0084 32.2262Z" fill="white"/>
<path d="M31.6666 6.26575H17.4166C16.5426 6.26575 15.8333 6.96768 15.8333 7.8325C15.8333 8.69733 16.5426 9.39926 17.4166 9.39926H31.6666C32.5406 9.39926 33.25 8.69733 33.25 7.8325C33.25 6.96768 32.5406 6.26575 31.6666 6.26575Z" fill="white"/>
<path d="M64.6475 28.8922C64.1566 28.1747 63.175 27.9773 62.4499 28.4661L57.8203 31.5431C57.0952 32.0256 56.9019 33.0001 57.3897 33.7177C57.6968 34.1658 58.1972 34.4102 58.707 34.4102C59.0079 34.4102 59.315 34.3256 59.5874 34.1439L64.217 31.0669C64.942 30.5843 65.1351 29.6099 64.6475 28.8922Z" fill="white"/>
<path d="M54.8181 36.3686C53.6845 35.485 48.6146 30.3493 45.4796 27.1157C44.8748 26.4889 43.871 26.467 43.2408 27.0687C42.6074 27.6672 42.5884 28.6604 43.1933 29.284C44.0071 30.1237 51.1859 37.528 52.8548 38.8316C53.1429 39.0572 53.4913 39.1669 53.8333 39.1669C54.2988 39.1669 54.7643 38.9601 55.0809 38.5684C55.6225 37.8914 55.5054 36.9044 54.8181 36.3686Z" fill="white"/>
<path d="M48.4911 39.5114C46.5942 38.0105 41.8285 33.0001 40.7517 31.8408C40.1563 31.2016 39.1588 31.164 38.5128 31.7468C37.8699 32.3327 37.8257 33.3261 38.4178 33.9622C38.4748 34.0217 44.1622 40.0975 46.5118 41.9587C46.8032 42.1874 47.1547 42.3002 47.4998 42.3002C47.9622 42.3002 48.4244 42.0965 48.7379 41.7143C49.2829 41.0373 49.172 40.0503 48.4911 39.5114Z" fill="white"/>
<path d="M42.1895 42.6668C39.9316 40.7837 35.3115 35.9174 34.409 34.9617C33.8105 34.3288 32.8066 34.2943 32.1701 34.8865C31.5305 35.4787 31.4987 36.4688 32.0941 37.1019C33.3925 38.4774 37.8131 43.1149 40.147 45.0639C40.4446 45.3114 40.8056 45.4336 41.1666 45.4336C41.6162 45.4336 42.066 45.2425 42.3795 44.8759C42.9431 44.2115 42.8576 43.2245 42.1895 42.6668Z" fill="white"/>
<path d="M18.506 3.56174C15.7921 1.01736 4.94 0.193219 1.67838 0.00212951C1.22877 -0.0197554 0.813883 0.127418 0.497266 0.425141C0.1805 0.719634 0 1.13324 0 1.56566V29.7664C0 30.6312 0.709383 31.3332 1.58338 31.3332H11.0834C11.7674 31.3332 12.3754 30.8977 12.5875 30.2521C12.8186 29.5502 18.2749 12.9808 18.9936 4.83386C19.0349 4.35753 18.8575 3.88752 18.506 3.56174ZM9.9275 28.1998H3.16662V3.24522C8.2555 3.64311 13.7465 4.50793 15.7415 5.46676C14.9024 12.3289 11.1055 24.5211 9.9275 28.1998Z" fill="white"/>
<path d="M74.4166 3.13239C61.9842 3.13239 55.0872 6.28147 54.7991 6.41307C54.3875 6.60416 54.0802 6.95829 53.9536 7.38761C53.827 7.81694 53.8902 8.27755 54.1277 8.65973C56.0847 11.7775 62.2122 29.0928 63.3902 33.3166C63.5802 33.9965 64.2041 34.4665 64.9166 34.4665H74.4166C75.2906 34.4665 76 33.7646 76 32.8997V4.699C76 3.83109 75.2906 3.13239 74.4166 3.13239ZM72.8333 31.3331H66.101C64.6 26.4951 60.1666 13.88 57.6935 8.66605C60.1096 7.85454 65.2998 6.46007 72.8333 6.2847V31.3331Z" fill="white"/>
</svg>
