<svg width="69" height="83" viewBox="0 0 69 83" fill="none" xmlns="http://www.w3.org/2000/svg">
<path d="M27.455 6.17212H22.3129C21.6372 6.17212 21.0894 6.71632 21.0894 7.38794C21.0894 8.05956 21.6372 8.60376 22.3129 8.60376H27.455C28.1307 8.60376 28.6785 8.05956 28.6785 7.38794C28.6785 6.71632 28.1309 6.17212 27.455 6.17212Z" fill="#FED233"/>
<path d="M28.2986 71.5732H21.469C19.7747 71.5732 18.3965 72.9427 18.3965 74.6264V75.5506C18.3965 77.2343 19.775 78.6039 21.469 78.6039H28.2986C29.993 78.6039 31.3711 77.2341 31.3711 75.5506V74.6264C31.3711 72.9427 29.9928 71.5732 28.2986 71.5732ZM28.9239 75.5506C28.9239 75.8875 28.6376 76.1721 28.2986 76.1721H21.469C21.13 76.1721 20.8437 75.8875 20.8437 75.5506V74.6264C20.8437 74.2895 21.13 74.005 21.469 74.005H28.2986C28.6376 74.005 28.9239 74.2895 28.9239 74.6264V75.5506Z" fill="#FED233"/>
<path d="M67.2662 40.7795H63.5601C63.3338 40.0661 63.0459 39.3747 62.6986 38.7116L65.3189 36.1078C65.6465 35.7823 65.8269 35.3495 65.8269 34.8891C65.8269 34.4289 65.6465 33.996 65.319 33.6709L62.2349 30.606C61.559 29.935 60.4593 29.9354 59.7831 30.6063L57.1625 33.2105C56.4953 32.8653 55.7996 32.5792 55.0815 32.3545V28.6716C55.0815 27.7216 54.3037 26.9485 53.3475 26.9485H49.7679V20.5184C49.7679 19.8468 49.2201 19.3026 48.5444 19.3026C47.8687 19.3026 47.2525 19.8468 47.2525 20.5184V28.1974V32.3545C46.5342 32.5794 45.8386 32.8653 45.1716 33.2106L44.4846 32.5278V14.4029C44.4846 13.1836 43.4863 12.191 42.2586 12.191C41.066 12.191 9.39843 12.191 7.50978 12.191C6.2825 12.191 5.28394 13.1831 5.28394 14.4029V67.388C5.28394 68.6074 6.28234 69.5998 7.50978 69.5998H42.2586C43.4859 69.5998 44.4844 68.6077 44.4844 67.388V56.8108L45.1714 56.1282C45.8386 56.4737 46.5342 56.7598 47.2524 56.9845C47.2524 60.8924 47.229 60.8243 47.3207 61.1416V61.1418V77.8718C47.3207 79.3586 46.1036 80.5681 44.6073 80.5681H27.739C27.0633 80.5681 26.5155 81.1123 26.5155 81.784C26.5155 82.4556 27.0633 82.9998 27.739 82.9998H44.6071C47.4527 82.9998 49.7678 80.6993 49.7678 77.8716V62.3903H53.3474C54.3033 62.3903 55.0813 61.6172 55.0813 60.6671V56.9843C55.7995 56.7594 56.4951 56.4735 57.1623 56.1282L59.783 58.7323C60.459 59.4039 61.5592 59.4039 62.2351 58.7323L65.3187 55.6681C65.6463 55.3426 65.8267 54.9099 65.8267 54.4496C65.8267 53.9892 65.6463 53.5565 65.3189 53.2311L62.6984 50.6272C63.0457 49.9641 63.3338 49.2731 63.5599 48.5593H67.2661C68.2221 48.5593 69.0001 47.7864 69.0001 46.8362V42.5024C69.0002 41.5526 68.2224 40.7795 67.2662 40.7795ZM14.8893 14.6232H42.037V19.9016H14.8893V14.6232ZM7.73084 14.6232H12.4419V19.9016H7.73084V14.6232ZM7.73084 67.168V22.3334C9.53905 22.3334 40.751 22.3334 42.0369 22.3334V30.2539C41.3969 29.968 40.6159 30.0925 40.0985 30.6063L37.0147 33.6707C36.3311 34.3501 36.3437 35.4413 37.0147 36.1077L39.6352 38.7116C39.5089 38.9525 39.3934 39.1983 39.2829 39.4465C39.0895 39.8811 38.9177 40.3251 38.7736 40.7794H35.0675C34.1115 40.7794 33.3335 41.5521 33.3335 42.5024V43.4533H12.6886C12.0129 43.4533 11.4651 43.9975 11.4651 44.6692C11.4651 45.3408 12.0129 45.885 12.6886 45.885H33.3335V46.8359C33.3335 47.7857 34.111 48.559 35.0675 48.559H38.7736C38.9834 49.2207 39.2617 49.9139 39.6352 50.6267L37.0147 53.2308C36.3386 53.9028 36.3386 54.9959 37.0147 55.6676L40.0985 58.732C40.6047 59.2347 41.3807 59.3769 42.0369 59.0846V67.1677H7.73084V67.168ZM66.5532 46.1275H62.6276C62.0592 46.1275 61.5657 46.5164 61.4362 47.0663C61.1752 48.1745 60.7373 49.2256 60.1345 50.1903C59.8347 50.6701 59.9068 51.292 60.3088 51.6916L63.0842 54.4496L61.0091 56.5117L58.2335 53.7536C57.8313 53.3545 57.2059 53.2825 56.7227 53.5806C55.7517 54.1796 54.6939 54.6149 53.5792 54.8741C53.0256 55.0027 52.6343 55.493 52.6343 56.058V59.9588H49.6996V56.058C49.6996 55.4932 49.3082 55.0027 48.7547 54.8741C47.6398 54.6149 46.582 54.1798 45.6112 53.5806C45.1285 53.2827 44.5025 53.3543 44.1004 53.7538L41.3249 56.5119L39.2497 54.4497L42.0251 51.6917C42.4273 51.2921 42.4992 50.67 42.1994 50.1901C41.5962 49.2251 41.1576 48.1699 40.8978 47.0666C40.7685 46.5166 40.2748 46.1277 39.7064 46.1277H35.781V43.2115H39.7064C40.2748 43.2115 40.7683 42.8226 40.8978 42.2725C41.1483 41.2093 41.5866 40.1293 42.1994 39.1489C42.3118 38.9689 42.372 38.769 42.3821 38.5683C42.3989 38.2339 42.2764 37.8972 42.0251 37.6477L40.1748 35.8089L39.2498 34.8896L41.3249 32.8274L44.1004 35.5855C44.5022 35.985 45.1282 36.0568 45.6112 35.7587C46.5819 35.1597 47.6395 34.7246 48.7547 34.4652C49.3082 34.3366 49.6996 33.8463 49.6996 33.2813V29.3805H52.6343V33.281C52.6343 33.8458 53.0256 34.3362 53.5792 34.4649C54.6942 34.7241 55.752 35.1592 56.7228 35.7583C57.2056 36.0561 57.8315 35.9845 58.2335 35.5852L61.0091 32.8271L63.0844 34.8893L60.3089 37.6474C59.907 38.0468 59.8348 38.6687 60.1347 39.1487C60.7375 40.1134 61.1755 41.1645 61.4364 42.2727C61.5657 42.8226 62.0594 43.2115 62.6278 43.2115H66.5532V46.1275Z" fill="#FED233"/>
<path d="M51.1668 38.1554C47.5522 38.1554 44.6113 41.0776 44.6113 44.6696C44.6113 48.2616 47.552 51.1838 51.1668 51.1838C54.7815 51.1838 57.7222 48.2616 57.7222 44.6696C57.7224 41.0776 54.7815 38.1554 51.1668 38.1554ZM51.1668 48.752C48.9015 48.752 47.0584 46.9205 47.0584 44.6694C47.0584 42.4184 48.9014 40.5869 51.1668 40.5869C53.4322 40.5869 55.275 42.4184 55.275 44.6694C55.275 46.9205 53.432 48.752 51.1668 48.752Z" fill="#FED233"/>
<path d="M34.5568 30.2407H12.6884C12.0127 30.2407 11.4648 30.7849 11.4648 31.4565C11.4648 32.1282 12.0127 32.6724 12.6884 32.6724H34.5568C35.2325 32.6724 35.7803 32.1282 35.7803 31.4565C35.7805 30.7849 35.2325 30.2407 34.5568 30.2407Z" fill="#FED233"/>
<path d="M34.5568 36.8473H12.6884C12.0127 36.8473 11.4648 37.3915 11.4648 38.0631C11.4648 38.7347 12.0127 39.2789 12.6884 39.2789H34.5568C35.2325 39.2789 35.7803 38.7347 35.7803 38.0631C35.7805 37.3915 35.2325 36.8473 34.5568 36.8473Z" fill="#FED233"/>
<path d="M34.5568 50.0601H12.6884C12.0127 50.0601 11.4648 50.6043 11.4648 51.2759C11.4648 51.9475 12.0127 52.4917 12.6884 52.4917H34.5568C35.2325 52.4917 35.7803 51.9475 35.7803 51.2759C35.7803 50.6043 35.2325 50.0601 34.5568 50.0601Z" fill="#FED233"/>
<path d="M34.5568 56.6663H12.6884C12.0127 56.6663 11.4648 57.2105 11.4648 57.8821C11.4648 58.5537 12.0127 59.0979 12.6884 59.0979H34.5568C35.2325 59.0979 35.7803 58.5537 35.7803 57.8821C35.7803 57.2105 35.2325 56.6663 34.5568 56.6663Z" fill="#FED233"/>
<path d="M44.6072 0H5.16069C2.31508 0 -1.0455e-07 2.30049 -1.0455e-07 5.12817V77.8718C-1.0455e-07 80.6993 2.31508 83 5.16069 83H22.0288C22.7045 83 23.2523 82.4558 23.2523 81.7842C23.2523 81.1126 22.7045 80.5684 22.0286 80.5684H5.16069C3.6644 80.5684 2.44723 79.3589 2.44723 77.872V5.12817C2.44723 3.6413 3.6644 2.4318 5.16069 2.4318H44.6072C46.1035 2.4318 47.3207 3.6413 47.3207 5.12817V14.8444C47.3207 15.516 47.8685 16.0602 48.5442 16.0602C49.2199 16.0602 49.7677 15.516 49.7677 14.8444V5.12817C49.7677 2.30049 47.4526 0 44.6072 0Z" fill="#FED233"/>
</svg>
