<svg width="79" height="61" viewBox="0 0 79 61" fill="none" xmlns="http://www.w3.org/2000/svg">
<path d="M6.06792 7.16587C6.37055 7.16587 6.66857 7.0439 6.8821 6.83045C7.09716 6.61853 7.22006 6.32275 7.22006 6.02239C7.22006 5.72203 7.09716 5.42625 6.8821 5.21433C6.66857 5.00088 6.37208 4.87891 6.06792 4.87891C5.76375 4.87891 5.46726 5.00088 5.25373 5.21433C5.03867 5.42625 4.91577 5.72203 4.91577 6.02239C4.91577 6.32275 5.03867 6.61853 5.25373 6.83045C5.46726 7.0439 5.76529 7.16587 6.06792 7.16587Z" fill="#FED233"/>
<path d="M9.75487 7.16587C10.059 7.16587 10.3555 7.0439 10.569 6.83045C10.7841 6.61853 10.907 6.32275 10.907 6.02239C10.907 5.72203 10.7841 5.42625 10.569 5.21433C10.3555 5.00088 10.0575 4.87891 9.75487 4.87891C9.45224 4.87891 9.15422 5.00088 8.94068 5.21433C8.72562 5.42625 8.60272 5.72203 8.60272 6.02239C8.60272 6.32275 8.72562 6.61853 8.94068 6.83045C9.15422 7.0439 9.45224 7.16587 9.75487 7.16587Z" fill="#FED233"/>
<path d="M13.4418 7.16587C13.7444 7.16587 14.0424 7.0439 14.2559 6.83045C14.471 6.61853 14.5939 6.32275 14.5939 6.02239C14.5939 5.72203 14.471 5.42625 14.2559 5.21433C14.0424 5.00088 13.7444 4.87891 13.4418 4.87891C13.1391 4.87891 12.8411 5.00088 12.6276 5.21433C12.4125 5.42625 12.2896 5.72203 12.2896 6.02239C12.2896 6.32275 12.4125 6.61853 12.6276 6.83045C12.8411 7.0439 13.1391 7.16587 13.4418 7.16587Z" fill="#FED233"/>
<path d="M18.3575 7.16587H65.0578C65.6941 7.16587 66.2099 6.6539 66.2099 6.02239C66.2099 5.39088 65.6941 4.87891 65.0578 4.87891H18.3575C17.7212 4.87891 17.2054 5.39088 17.2054 6.02239C17.2054 6.6539 17.7212 7.16587 18.3575 7.16587Z" fill="#FED233"/>
<path d="M69.9736 7.16587H72.4315C73.0678 7.16587 73.5836 6.6539 73.5836 6.02239C73.5836 5.39088 73.0678 4.87891 72.4315 4.87891H69.9736C69.3373 4.87891 68.8214 5.39088 68.8214 6.02239C68.8214 6.6539 69.3373 7.16587 69.9736 7.16587Z" fill="#FED233"/>
<path d="M67.5156 17.0762H45.3945C43.4039 17.0762 41.7844 18.6835 41.7844 20.6591V20.7353H40.4787C38.4881 20.7353 36.8686 22.3426 36.8686 24.3182V34.1522H34.2571V30.4168C34.2571 28.4412 32.6376 26.8339 30.647 26.8339H10.9838C8.99317 26.8339 7.37372 28.4412 7.37372 30.4168V40.1745C7.37372 42.1502 8.99317 43.7575 10.9838 43.7575H30.647C32.6376 43.7575 34.2571 42.1502 34.2571 40.1745V36.4392H36.8686V46.2731C36.8686 48.2488 38.4881 49.856 40.4787 49.856H41.7844V49.9323C41.7844 51.9079 43.4039 53.5152 45.3945 53.5152H67.5156C69.5062 53.5152 71.1257 51.9079 71.1257 49.9323V47.4928C71.1257 45.5172 69.5062 43.9099 67.5156 43.9099H45.3945C43.4039 43.9099 41.7844 45.5172 41.7844 47.4928V47.5691H40.4787C39.7586 47.5691 39.1729 46.9877 39.1729 46.2731V36.4392H41.7844V36.5154C41.7844 38.491 43.4039 40.0983 45.3945 40.0983H67.5156C69.5062 40.0983 71.1257 38.491 71.1257 36.5154V34.076C71.1257 32.1003 69.5062 30.493 67.5156 30.493H45.3945C43.4039 30.493 41.7844 32.1003 41.7844 34.076V34.1522H39.1729V24.3182C39.1729 23.6036 39.7586 23.0223 40.4787 23.0223H41.7844V23.0985C41.7844 25.0742 43.4039 26.6814 45.3945 26.6814H67.5156C69.5062 26.6814 71.1257 25.0742 71.1257 23.0985V20.6591C71.1257 18.6835 69.5062 17.0762 67.5156 17.0762ZM31.9528 40.1745C31.9528 40.8891 31.367 41.4705 30.647 41.4705H10.9838C10.2638 41.4705 9.67801 40.8891 9.67801 40.1745V30.4168C9.67801 29.7022 10.2638 29.1209 10.9838 29.1209H30.647C31.367 29.1209 31.9528 29.7022 31.9528 30.4168V40.1745ZM44.0887 47.4928C44.0887 46.7782 44.6745 46.1969 45.3945 46.1969H67.5156C68.2356 46.1969 68.8214 46.7782 68.8214 47.4928V49.9323C68.8214 50.6469 68.2356 51.2282 67.5156 51.2282H45.3945C44.6745 51.2282 44.0887 50.6469 44.0887 49.9323V47.4928ZM44.0887 34.076C44.0887 33.3614 44.6745 32.78 45.3945 32.78H67.5156C68.2356 32.78 68.8214 33.3614 68.8214 34.076V36.5154C68.8214 37.23 68.2356 37.8113 67.5156 37.8113H45.3945C44.6745 37.8113 44.0887 37.23 44.0887 36.5154V34.076ZM68.8214 23.0985C68.8214 23.8131 68.2356 24.3945 67.5156 24.3945H45.3945C44.6745 24.3945 44.0887 23.8131 44.0887 23.0985V20.6591C44.0887 19.9445 44.6745 19.3631 45.3945 19.3631H67.5156C68.2356 19.3631 68.8214 19.9445 68.8214 20.6591V23.0985Z" fill="#FED233"/>
<path d="M72.4315 0H6.06796C2.72213 0 0 2.70167 0 6.02235V54.811C0 58.1317 2.72213 60.8333 6.06796 60.8333H72.4315C75.7773 60.8333 78.4994 58.1317 78.4994 54.811V6.02235C78.4994 2.70167 75.7773 0 72.4315 0ZM6.06796 2.28697H72.4315C74.5067 2.28697 76.1951 3.9627 76.1951 6.02235V9.75773H2.30429V6.02235C2.30429 3.9627 3.99272 2.28697 6.06796 2.28697ZM72.4315 58.5464H6.06796C3.99272 58.5464 2.30429 56.8706 2.30429 54.811V12.0447H76.1951V54.811C76.1951 56.8706 74.5067 58.5464 72.4315 58.5464Z" fill="#FED233"/>
</svg>
